<svg xmlns="http://www.w3.org/2000/svg" xmlns:xlink="http://www.w3.org/1999/xlink" width="500" zoomAndPan="magnify" viewBox="0 0 375 374.999991" height="500" preserveAspectRatio="xMidYMid meet" version="1.0"><defs><g/><clipPath id="10d206b5a7"><path d="M 112.738281 149 L 254.8125 149 L 254.8125 192.941406 L 112.738281 192.941406 Z M 112.738281 149 " clip-rule="nonzero"/></clipPath><clipPath id="7f67bb3fac"><path d="M 148.640625 112.195312 L 169.992188 112.195312 L 169.992188 133.542969 L 148.640625 133.542969 Z M 148.640625 112.195312 " clip-rule="nonzero"/></clipPath><clipPath id="70268f4e5b"><path d="M 159.316406 112.195312 C 153.421875 112.195312 148.640625 116.972656 148.640625 122.867188 C 148.640625 128.765625 153.421875 133.542969 159.316406 133.542969 C 165.214844 133.542969 169.992188 128.765625 169.992188 122.867188 C 169.992188 116.972656 165.214844 112.195312 159.316406 112.195312 Z M 159.316406 112.195312 " clip-rule="nonzero"/></clipPath><clipPath id="6a620232f4"><path d="M 197.695312 112.195312 L 219.046875 112.195312 L 219.046875 133.542969 L 197.695312 133.542969 Z M 197.695312 112.195312 " clip-rule="nonzero"/></clipPath><clipPath id="5abd97c0e4"><path d="M 208.371094 112.195312 C 202.476562 112.195312 197.695312 116.972656 197.695312 122.867188 C 197.695312 128.765625 202.476562 133.542969 208.371094 133.542969 C 214.265625 133.542969 219.046875 128.765625 219.046875 122.867188 C 219.046875 116.972656 214.265625 112.195312 208.371094 112.195312 Z M 208.371094 112.195312 " clip-rule="nonzero"/></clipPath></defs><g clip-path="url(#10d206b5a7)"><path fill="#02c8f0" d="M 128.527344 153.304688 L 128.527344 149.34375 L 112.738281 149.34375 L 112.738281 153.304688 C 112.738281 166.429688 123.339844 177.070312 136.417969 177.070312 L 164.042969 177.070312 C 166.527344 177.070312 168.867188 178.246094 170.359375 180.242188 L 177.460938 189.746094 C 178.882812 191.648438 181.082031 192.808594 183.449219 192.910156 C 185.816406 193.007812 188.101562 192.035156 189.675781 190.257812 L 198.992188 179.730469 C 200.492188 178.039062 202.640625 177.070312 204.894531 177.070312 L 231.132812 177.070312 C 244.210938 177.070312 254.8125 166.429688 254.8125 153.304688 L 254.8125 149.34375 L 239.027344 149.34375 L 239.027344 153.304688 C 239.027344 157.679688 235.492188 161.226562 231.132812 161.226562 L 204.894531 161.226562 C 198.128906 161.226562 191.6875 164.132812 187.195312 169.207031 L 184.292969 172.484375 L 182.984375 170.734375 C 178.515625 164.75 171.496094 161.226562 164.042969 161.226562 L 136.417969 161.226562 C 132.058594 161.226562 128.527344 157.679688 128.527344 153.304688 Z M 128.527344 153.304688 " fill-opacity="1" fill-rule="evenodd"/></g><g clip-path="url(#7f67bb3fac)"><g clip-path="url(#70268f4e5b)"><path fill="#02c8f0" d="M 148.640625 112.195312 L 169.992188 112.195312 L 169.992188 133.542969 L 148.640625 133.542969 Z M 148.640625 112.195312 " fill-opacity="1" fill-rule="nonzero"/></g></g><g clip-path="url(#6a620232f4)"><g clip-path="url(#5abd97c0e4)"><path fill="#02c8f0" d="M 197.695312 112.195312 L 219.046875 112.195312 L 219.046875 133.542969 L 197.695312 133.542969 Z M 197.695312 112.195312 " fill-opacity="1" fill-rule="nonzero"/></g></g><g fill="#02c8f0" fill-opacity="1"><g transform="translate(77.957662, 245.459823)"><g><path d="M 20.71875 0.75 C 18.019531 0.75 15.515625 0.28125 13.203125 -0.65625 C 10.890625 -1.59375 8.894531 -2.898438 7.21875 -4.578125 C 5.539062 -6.253906 4.234375 -8.242188 3.296875 -10.546875 C 2.359375 -12.859375 1.890625 -15.367188 1.890625 -18.078125 C 1.890625 -20.773438 2.367188 -23.28125 3.328125 -25.59375 C 4.285156 -27.90625 5.601562 -29.90625 7.28125 -31.59375 C 8.957031 -33.289062 10.941406 -34.617188 13.234375 -35.578125 C 15.523438 -36.535156 18.003906 -37.015625 20.671875 -37.015625 C 23.484375 -37.015625 26.097656 -36.472656 28.515625 -35.390625 C 30.929688 -34.304688 33.023438 -32.753906 34.796875 -30.734375 L 29.265625 -25.375 C 28.222656 -26.601562 26.988281 -27.566406 25.5625 -28.265625 C 24.132812 -28.972656 22.578125 -29.328125 20.890625 -29.328125 C 19.335938 -29.328125 17.910156 -29.046875 16.609375 -28.484375 C 15.304688 -27.929688 14.175781 -27.15625 13.21875 -26.15625 C 12.269531 -25.164062 11.535156 -23.984375 11.015625 -22.609375 C 10.492188 -21.242188 10.234375 -19.769531 10.234375 -18.1875 C 10.234375 -16.5625 10.5 -15.0625 11.03125 -13.6875 C 11.570312 -12.320312 12.320312 -11.132812 13.28125 -10.125 C 14.238281 -9.113281 15.382812 -8.328125 16.71875 -7.765625 C 18.050781 -7.203125 19.515625 -6.921875 21.109375 -6.921875 C 22.835938 -6.921875 24.421875 -7.28125 25.859375 -8 C 27.304688 -8.726562 28.535156 -9.707031 29.546875 -10.9375 L 35.0625 -5.6875 C 33.332031 -3.625 31.25 -2.035156 28.8125 -0.921875 C 26.375 0.191406 23.675781 0.75 20.71875 0.75 Z M 20.71875 0.75 "/></g></g></g><g fill="#02c8f0" fill-opacity="1"><g transform="translate(114.092265, 245.459823)"><g><path d="M 14.984375 0.75 C 13.109375 0.75 11.359375 0.410156 9.734375 -0.265625 C 8.117188 -0.953125 6.703125 -1.890625 5.484375 -3.078125 C 4.273438 -4.273438 3.328125 -5.675781 2.640625 -7.28125 C 1.960938 -8.882812 1.625 -10.601562 1.625 -12.4375 C 1.625 -14.28125 1.960938 -16.003906 2.640625 -17.609375 C 3.328125 -19.210938 4.273438 -20.609375 5.484375 -21.796875 C 6.703125 -22.992188 8.117188 -23.929688 9.734375 -24.609375 C 11.359375 -25.296875 13.109375 -25.640625 14.984375 -25.640625 C 16.859375 -25.640625 18.609375 -25.296875 20.234375 -24.609375 C 21.859375 -23.929688 23.273438 -22.992188 24.484375 -21.796875 C 25.691406 -20.609375 26.640625 -19.210938 27.328125 -17.609375 C 28.015625 -16.003906 28.359375 -14.28125 28.359375 -12.4375 C 28.359375 -10.601562 28.015625 -8.882812 27.328125 -7.28125 C 26.640625 -5.675781 25.691406 -4.273438 24.484375 -3.078125 C 23.273438 -1.890625 21.859375 -0.953125 20.234375 -0.265625 C 18.609375 0.410156 16.859375 0.75 14.984375 0.75 Z M 14.984375 -6.109375 C 16.753906 -6.109375 18.1875 -6.691406 19.28125 -7.859375 C 20.382812 -9.035156 20.9375 -10.582031 20.9375 -12.5 C 20.9375 -14.34375 20.382812 -15.847656 19.28125 -17.015625 C 18.1875 -18.191406 16.753906 -18.78125 14.984375 -18.78125 C 13.222656 -18.78125 11.789062 -18.191406 10.6875 -17.015625 C 9.582031 -15.847656 9.03125 -14.34375 9.03125 -12.5 C 9.03125 -10.582031 9.582031 -9.035156 10.6875 -7.859375 C 11.789062 -6.691406 13.222656 -6.109375 14.984375 -6.109375 Z M 14.984375 -6.109375 "/></g></g></g><g fill="#02c8f0" fill-opacity="1"><g transform="translate(144.060185, 245.459823)"><g><path d="M 13.578125 0.75 C 11.878906 0.75 10.304688 0.414062 8.859375 -0.25 C 7.421875 -0.914062 6.160156 -1.84375 5.078125 -3.03125 C 4.003906 -4.21875 3.160156 -5.613281 2.546875 -7.21875 C 1.929688 -8.820312 1.625 -10.5625 1.625 -12.4375 C 1.625 -14.28125 1.929688 -16.003906 2.546875 -17.609375 C 3.160156 -19.210938 4.003906 -20.609375 5.078125 -21.796875 C 6.160156 -22.992188 7.441406 -23.929688 8.921875 -24.609375 C 10.398438 -25.296875 11.988281 -25.640625 13.6875 -25.640625 C 15.164062 -25.640625 16.523438 -25.382812 17.765625 -24.875 C 19.015625 -24.375 20.109375 -23.65625 21.046875 -22.71875 L 21.046875 -38.421875 L 28.296875 -38.421875 L 28.296875 0 L 21.375 0 L 21.375 -2.703125 C 20.4375 -1.660156 19.304688 -0.820312 17.984375 -0.1875 C 16.671875 0.4375 15.203125 0.75 13.578125 0.75 Z M 15.15625 -5.84375 C 16.050781 -5.84375 16.878906 -6.015625 17.640625 -6.359375 C 18.398438 -6.703125 19.054688 -7.171875 19.609375 -7.765625 C 20.171875 -8.359375 20.601562 -9.050781 20.90625 -9.84375 C 21.21875 -10.632812 21.375 -11.5 21.375 -12.4375 C 21.375 -13.382812 21.21875 -14.253906 20.90625 -15.046875 C 20.601562 -15.835938 20.171875 -16.53125 19.609375 -17.125 C 19.054688 -17.71875 18.398438 -18.1875 17.640625 -18.53125 C 16.878906 -18.875 16.050781 -19.046875 15.15625 -19.046875 C 14.289062 -19.046875 13.476562 -18.875 12.71875 -18.53125 C 11.957031 -18.1875 11.304688 -17.71875 10.765625 -17.125 C 10.222656 -16.53125 9.796875 -15.835938 9.484375 -15.046875 C 9.179688 -14.253906 9.03125 -13.382812 9.03125 -12.4375 C 9.03125 -11.5 9.179688 -10.632812 9.484375 -9.84375 C 9.796875 -9.050781 10.222656 -8.359375 10.765625 -7.765625 C 11.304688 -7.171875 11.957031 -6.703125 12.71875 -6.359375 C 13.476562 -6.015625 14.289062 -5.84375 15.15625 -5.84375 Z M 15.15625 -5.84375 "/></g></g></g><g fill="#02c8f0" fill-opacity="1"><g transform="translate(175.326357, 245.459823)"><g><path d="M 15.046875 0.75 C 13.054688 0.75 11.238281 0.425781 9.59375 -0.21875 C 7.957031 -0.863281 6.546875 -1.765625 5.359375 -2.921875 C 4.171875 -4.078125 3.25 -5.457031 2.59375 -7.0625 C 1.945312 -8.664062 1.625 -10.425781 1.625 -12.34375 C 1.625 -14.25 1.945312 -16.015625 2.59375 -17.640625 C 3.25 -19.265625 4.148438 -20.671875 5.296875 -21.859375 C 6.453125 -23.046875 7.820312 -23.972656 9.40625 -24.640625 C 11 -25.304688 12.734375 -25.640625 14.609375 -25.640625 C 16.378906 -25.640625 18.007812 -25.34375 19.5 -24.75 C 21 -24.15625 22.304688 -23.316406 23.421875 -22.234375 C 24.546875 -21.148438 25.421875 -19.867188 26.046875 -18.390625 C 26.679688 -16.910156 27 -15.289062 27 -13.53125 C 27 -12.875 26.976562 -12.328125 26.9375 -11.890625 C 26.90625 -11.460938 26.835938 -10.941406 26.734375 -10.328125 L 9.140625 -10.328125 C 9.503906 -8.816406 10.253906 -7.628906 11.390625 -6.765625 C 12.523438 -5.898438 13.976562 -5.46875 15.75 -5.46875 C 17.007812 -5.46875 18.195312 -5.703125 19.3125 -6.171875 C 20.4375 -6.640625 21.484375 -7.394531 22.453125 -8.4375 L 26.296875 -4.171875 C 24.890625 -2.546875 23.210938 -1.316406 21.265625 -0.484375 C 19.316406 0.335938 17.242188 0.75 15.046875 0.75 Z M 19.796875 -15.359375 C 19.472656 -16.878906 18.851562 -18.035156 17.9375 -18.828125 C 17.019531 -19.617188 15.875 -20.015625 14.5 -20.015625 C 13.09375 -20.015625 11.910156 -19.597656 10.953125 -18.765625 C 9.992188 -17.941406 9.351562 -16.804688 9.03125 -15.359375 Z M 19.796875 -15.359375 "/></g></g></g><g fill="#ffffff" fill-opacity="1"><g transform="translate(203.945935, 245.459823)"><g><path d="M 13.796875 0.96875 C 10.984375 0.96875 8.457031 0.335938 6.21875 -0.921875 C 3.988281 -2.179688 2.1875 -4.003906 0.8125 -6.390625 L 6.328125 -10.984375 C 8.203125 -7.628906 10.675781 -5.953125 13.75 -5.953125 C 15.113281 -5.953125 16.21875 -6.285156 17.0625 -6.953125 C 17.914062 -7.617188 18.34375 -8.492188 18.34375 -9.578125 C 18.34375 -10.585938 17.925781 -11.460938 17.09375 -12.203125 C 16.269531 -12.941406 14.773438 -13.78125 12.609375 -14.71875 C 9.253906 -16.195312 6.804688 -17.847656 5.265625 -19.671875 C 3.734375 -21.492188 2.96875 -23.664062 2.96875 -26.1875 C 2.96875 -27.769531 3.253906 -29.226562 3.828125 -30.5625 C 4.410156 -31.90625 5.222656 -33.050781 6.265625 -34 C 7.316406 -34.957031 8.5625 -35.695312 10 -36.21875 C 11.445312 -36.75 13.035156 -37.015625 14.765625 -37.015625 C 19.347656 -37.015625 23.226562 -35.046875 26.40625 -31.109375 L 21.15625 -26.34375 C 20.144531 -27.6875 19.132812 -28.671875 18.125 -29.296875 C 17.113281 -29.929688 15.992188 -30.25 14.765625 -30.25 C 13.578125 -30.25 12.628906 -29.953125 11.921875 -29.359375 C 11.222656 -28.765625 10.875 -27.960938 10.875 -26.953125 C 10.875 -25.828125 11.34375 -24.90625 12.28125 -24.1875 C 13.21875 -23.46875 14.625 -22.691406 16.5 -21.859375 C 19.925781 -20.347656 22.40625 -18.660156 23.9375 -16.796875 C 25.476562 -14.941406 26.25 -12.753906 26.25 -10.234375 C 26.25 -8.566406 25.941406 -7.046875 25.328125 -5.671875 C 24.710938 -4.304688 23.863281 -3.128906 22.78125 -2.140625 C 21.695312 -1.148438 20.390625 -0.382812 18.859375 0.15625 C 17.328125 0.695312 15.640625 0.96875 13.796875 0.96875 Z M 13.796875 0.96875 "/></g></g></g><g fill="#ffffff" fill-opacity="1"><g transform="translate(232.236952, 245.459823)"><g><path d="M 9.953125 0.75 C 8.691406 0.75 7.535156 0.550781 6.484375 0.15625 C 5.441406 -0.238281 4.539062 -0.785156 3.78125 -1.484375 C 3.03125 -2.191406 2.4375 -3.019531 2 -3.96875 C 1.570312 -4.925781 1.359375 -5.96875 1.359375 -7.09375 C 1.359375 -8.28125 1.597656 -9.382812 2.078125 -10.40625 C 2.566406 -11.4375 3.257812 -12.332031 4.15625 -13.09375 C 5.0625 -13.851562 6.117188 -14.4375 7.328125 -14.84375 C 8.535156 -15.257812 9.878906 -15.46875 11.359375 -15.46875 C 13.671875 -15.46875 15.742188 -14.960938 17.578125 -13.953125 L 17.578125 -14.453125 C 17.578125 -15.929688 17.085938 -17.109375 16.109375 -17.984375 C 15.140625 -18.867188 13.898438 -19.3125 12.390625 -19.3125 C 10.296875 -19.3125 8.582031 -18.429688 7.25 -16.671875 L 2.921875 -21.703125 C 4.429688 -23.066406 6.015625 -24.0625 7.671875 -24.6875 C 9.335938 -25.320312 11.195312 -25.640625 13.25 -25.640625 C 14.988281 -25.640625 16.5625 -25.359375 17.96875 -24.796875 C 19.375 -24.242188 20.585938 -23.472656 21.609375 -22.484375 C 22.640625 -21.492188 23.4375 -20.3125 24 -18.9375 C 24.5625 -17.5625 24.84375 -16.046875 24.84375 -14.390625 L 24.84375 0 L 17.578125 0 L 17.578125 -2.546875 C 16.535156 -1.347656 15.398438 -0.5 14.171875 0 C 12.953125 0.5 11.546875 0.75 9.953125 0.75 Z M 12.28125 -4.703125 C 13.6875 -4.703125 14.875 -5.085938 15.84375 -5.859375 C 16.820312 -6.640625 17.398438 -7.660156 17.578125 -8.921875 C 15.921875 -10.003906 14.265625 -10.546875 12.609375 -10.546875 C 11.347656 -10.546875 10.363281 -10.273438 9.65625 -9.734375 C 8.957031 -9.191406 8.609375 -8.472656 8.609375 -7.578125 C 8.609375 -6.671875 8.929688 -5.960938 9.578125 -5.453125 C 10.222656 -4.953125 11.125 -4.703125 12.28125 -4.703125 Z M 12.28125 -4.703125 "/></g></g></g><g fill="#ffffff" fill-opacity="1"><g transform="translate(259.770657, 245.459823)"><g><path d="M 9.09375 0.484375 L 0 -24.890625 L 7.796875 -24.890625 L 13.203125 -9.140625 L 18.5 -24.890625 L 25.921875 -24.890625 L 11.640625 13.53125 L 4.21875 13.53125 Z M 9.09375 0.484375 "/></g></g></g><g fill="#ffffff" fill-opacity="1"><g transform="translate(285.681544, 245.459823)"><g><path d="M 12.4375 0.75 C 10.132812 0.75 7.972656 0.375 5.953125 -0.375 C 3.929688 -1.132812 2.21875 -2.234375 0.8125 -3.671875 L 4.765625 -8.65625 C 6.023438 -7.46875 7.332031 -6.566406 8.6875 -5.953125 C 10.039062 -5.335938 11.382812 -5.03125 12.71875 -5.03125 C 13.757812 -5.03125 14.5625 -5.191406 15.125 -5.515625 C 15.6875 -5.835938 15.96875 -6.304688 15.96875 -6.921875 C 15.96875 -7.535156 15.597656 -8.03125 14.859375 -8.40625 C 14.117188 -8.789062 12.8125 -9.179688 10.9375 -9.578125 C 5.195312 -10.878906 2.328125 -13.53125 2.328125 -17.53125 C 2.328125 -18.71875 2.566406 -19.816406 3.046875 -20.828125 C 3.535156 -21.835938 4.234375 -22.691406 5.140625 -23.390625 C 6.046875 -24.097656 7.128906 -24.648438 8.390625 -25.046875 C 9.648438 -25.441406 11.054688 -25.640625 12.609375 -25.640625 C 14.554688 -25.640625 16.441406 -25.320312 18.265625 -24.6875 C 20.085938 -24.0625 21.71875 -23.117188 23.15625 -21.859375 L 19.484375 -16.828125 C 18.179688 -17.941406 16.960938 -18.722656 15.828125 -19.171875 C 14.691406 -19.628906 13.5625 -19.859375 12.4375 -19.859375 C 10.601562 -19.859375 9.6875 -19.316406 9.6875 -18.234375 C 9.6875 -17.660156 10.035156 -17.191406 10.734375 -16.828125 C 11.441406 -16.460938 12.734375 -16.066406 14.609375 -15.640625 C 17.597656 -14.921875 19.796875 -13.882812 21.203125 -12.53125 C 22.617188 -11.175781 23.328125 -9.488281 23.328125 -7.46875 C 23.328125 -6.207031 23.0625 -5.070312 22.53125 -4.0625 C 22.007812 -3.050781 21.28125 -2.191406 20.34375 -1.484375 C 19.40625 -0.785156 18.257812 -0.238281 16.90625 0.15625 C 15.550781 0.550781 14.0625 0.75 12.4375 0.75 Z M 12.4375 0.75 "/></g></g></g></svg>